<svg width="16" height="16" viewBox="0 0 16 16" fill="none" xmlns="http://www.w3.org/2000/svg">
<g clip-path="url(#clip0_175_648)">
<path d="M15.4853 4.91004C15.4502 4.11303 15.3213 3.5651 15.1367 3.0903C14.9462 2.58632 14.6532 2.13511 14.2693 1.76001C13.8942 1.37908 13.44 1.08308 12.9419 0.895585C12.4643 0.710956 11.9192 0.58207 11.1222 0.54693C10.3193 0.508814 10.0644 0.5 8.02784 0.5C5.9913 0.5 5.73639 0.508814 4.93641 0.543954C4.1394 0.579094 3.59147 0.708094 3.11679 0.892609C2.61269 1.08308 2.16148 1.3761 1.78638 1.76001C1.40545 2.13511 1.10956 2.5893 0.921952 3.08744C0.737323 3.5651 0.608437 4.11006 0.573297 4.90706C0.535181 5.71002 0.526367 5.96493 0.526367 8.00147C0.526367 10.038 0.535181 10.2929 0.570321 11.0929C0.605461 11.8899 0.734461 12.4378 0.919091 12.9126C1.10956 13.4166 1.40545 13.8678 1.78638 14.2429C2.16148 14.6239 2.61567 14.9199 3.11381 15.1073C3.59147 15.292 4.13643 15.4209 4.93355 15.456C5.73342 15.4913 5.98844 15.5 8.02497 15.5C10.0615 15.5 10.3164 15.4913 11.1164 15.456C11.9134 15.4209 12.4613 15.292 12.936 15.1073C13.9441 14.7176 14.7411 13.9206 15.1309 12.9126C15.3154 12.435 15.4444 11.8899 15.4795 11.0929C15.5147 10.2929 15.5235 10.038 15.5235 8.00147C15.5235 5.96493 15.5205 5.71002 15.4853 4.91004ZM14.1346 11.0343C14.1023 11.7668 13.9792 12.1624 13.8767 12.4262C13.6246 13.0796 13.106 13.5983 12.4525 13.8503C12.1888 13.9529 11.7904 14.0759 11.0607 14.1081C10.2695 14.1433 10.0322 14.152 8.03081 14.152C6.02942 14.152 5.78916 14.1433 5.00085 14.1081C4.26829 14.0759 3.8727 13.9529 3.60898 13.8503C3.28379 13.7301 2.98779 13.5397 2.74753 13.2906C2.49846 13.0473 2.30799 12.7543 2.1878 12.4291C2.08524 12.1654 1.9622 11.7668 1.93003 11.0373C1.89478 10.2461 1.88608 10.0087 1.88608 8.0073C1.88608 6.00591 1.89478 5.76565 1.93003 4.97746C1.9622 4.24489 2.08524 3.84931 2.1878 3.58559C2.30799 3.26028 2.49846 2.96439 2.7505 2.72402C2.99362 2.47495 3.28665 2.28448 3.61195 2.16441C3.87568 2.06185 4.27424 1.9388 5.00383 1.90652C5.795 1.87138 6.0324 1.86257 8.03367 1.86257C10.038 1.86257 10.2753 1.87138 11.0636 1.90652C11.7962 1.9388 12.1918 2.06185 12.4555 2.16441C12.7807 2.28448 13.0767 2.47495 13.317 2.72402C13.566 2.96726 13.7565 3.26028 13.8767 3.58559C13.9792 3.84931 14.1023 4.24776 14.1346 4.97746C14.1697 5.76863 14.1785 6.00591 14.1785 8.0073C14.1785 10.0087 14.1697 10.2431 14.1346 11.0343Z" fill="#1A817D"/>
<path d="M8.02785 4.14795C5.90055 4.14795 4.17456 5.87383 4.17456 8.00124C4.17456 10.1287 5.90055 11.8545 8.02785 11.8545C10.1553 11.8545 11.8811 10.1287 11.8811 8.00124C11.8811 5.87383 10.1553 4.14795 8.02785 4.14795ZM8.02785 10.5008C6.64777 10.5008 5.52832 9.38144 5.52832 8.00124C5.52832 6.62104 6.64777 5.50171 8.02785 5.50171C9.40805 5.50171 10.5274 6.62104 10.5274 8.00124C10.5274 9.38144 9.40805 10.5008 8.02785 10.5008Z" fill="#1A817D"/>
<path d="M12.9332 3.99576C12.9332 4.49253 12.5304 4.89533 12.0335 4.89533C11.5367 4.89533 11.1339 4.49253 11.1339 3.99576C11.1339 3.49887 11.5367 3.09619 12.0335 3.09619C12.5304 3.09619 12.9332 3.49887 12.9332 3.99576Z" fill="#1A817D"/>
</g>
<defs>
<clipPath id="clip0_175_648">
<rect width="15" height="15" fill="white" transform="translate(0.5 0.5)"/>
</clipPath>
</defs>
</svg>
