<svg width="23" height="18" viewBox="0 0 23 18" fill="none" xmlns="http://www.w3.org/2000/svg">
<path d="M20.1107 8.33688C21.6274 9.29186 22.6948 10.9771 22.6386 12.9433C22.5824 15.6958 20.3354 17.9428 17.5267 17.999C14.6055 18.0552 12.2462 15.6958 12.2462 12.8309C12.2462 12.7747 12.2462 12.7185 12.2462 12.6624C12.3585 6.70781 16.2346 2.38231 18.3693 0.47236C19.0996 -0.20174 20.2792 -0.145565 20.9533 0.584713C21.6274 1.37117 21.5151 2.49467 20.7848 3.16877C20.3916 3.50582 19.9422 3.95522 19.4928 4.40462C18.4255 5.64048 18.7063 7.55043 20.1107 8.33688ZM7.80835 8.33688C9.32508 9.29186 10.3924 10.9771 10.3362 12.9433C10.2801 15.6958 8.03305 17.9428 5.22429 17.999C2.35936 18.0552 0 15.6958 0 12.8309C0 12.7747 0 12.7185 0 12.6624C0.0561751 6.70781 3.93226 2.38231 6.06692 0.47236C6.7972 -0.20174 7.97688 -0.145565 8.65098 0.584713C9.32508 1.37117 9.21273 2.49467 8.48245 3.16877C8.08923 3.50582 7.63982 3.95522 7.19042 4.40462C6.12309 5.64048 6.40397 7.55043 7.80835 8.33688Z" fill="#1A817D"/>
</svg>
