<svg width="16" height="16" viewBox="0 0 16 16" fill="none" xmlns="http://www.w3.org/2000/svg">
<g clip-path="url(#clip0_175_643)">
<path d="M6.34147 15C5.32237 15 4.36124 14.6749 3.56198 14.0596C3.41268 13.9448 3.26913 13.8193 3.13515 13.687C2.20218 12.7649 1.73268 11.5369 1.81335 10.2291C1.87432 9.24059 2.27245 8.28766 2.93499 7.54582C3.81245 6.56336 5.02214 6.02223 6.34175 6.02223C6.56843 6.02223 6.7973 6.03918 7.02261 6.07254L7.37261 6.12449V9.23047L6.83366 9.05246C6.67671 9.00051 6.51347 8.97426 6.34831 8.97426C5.93104 8.97426 5.5403 9.13777 5.248 9.43445C4.95706 9.72977 4.80038 10.1202 4.8064 10.5345C4.81433 11.0685 5.09569 11.5525 5.5589 11.8298C5.77218 11.9572 6.01499 12.0318 6.26163 12.0455C6.45632 12.0562 6.64854 12.0307 6.83339 11.9698C7.4653 11.7611 7.88995 11.1749 7.88995 10.5113L7.89269 7.29016V1H10.8611L10.8647 1.40633C10.8663 1.59035 10.8852 1.77438 10.9207 1.95266C11.0602 2.65375 11.4534 3.27855 12.0279 3.71168C12.5378 4.09641 13.1465 4.29957 13.7875 4.29957C13.8025 4.29957 13.8025 4.29957 13.9395 4.30914L14.3209 4.33594V6.85156V7.26172L14.1842 7.26145H13.9116C13.9094 7.26145 13.9072 7.26145 13.9048 7.26145H13.7738C13.7732 7.26145 13.7724 7.26145 13.7716 7.26145C12.9811 7.26145 12.2403 7.11078 11.5062 6.80098C11.2874 6.70855 11.0744 6.60301 10.8688 6.48516L10.8781 10.5268C10.8732 11.7223 10.4007 12.8437 9.5478 13.6867C8.85573 14.3705 7.98237 14.8075 7.02206 14.9497C6.79812 14.983 6.56925 15 6.34147 15ZM6.34147 6.84254C5.25894 6.84254 4.26636 7.28633 3.54667 8.09215C3.00636 8.69727 2.68151 9.4741 2.63175 10.2794C2.56612 11.3471 2.94948 12.3501 3.71155 13.1032C3.82175 13.212 3.9396 13.3151 4.0621 13.4094C4.71671 13.9134 5.50503 14.1797 6.34147 14.1797C6.52905 14.1797 6.71745 14.1657 6.90202 14.1384C7.6887 14.0219 8.40429 13.664 8.9714 13.1034C9.66812 12.4149 10.0539 11.4997 10.058 10.5263L10.0452 4.88281L10.7077 5.39387C11.0498 5.65773 11.426 5.87703 11.8255 6.04574C12.3716 6.27625 12.922 6.40422 13.5003 6.43457V5.10977C12.7856 5.05617 12.1105 4.80215 11.5338 4.36711C10.7982 3.81258 10.2948 3.01195 10.116 2.11316C10.0969 2.01664 10.0813 1.91902 10.0698 1.82059H8.71273V7.29043L8.70999 10.5115C8.70999 11.5295 8.05921 12.4286 7.09042 12.7485C6.80796 12.8418 6.51401 12.8806 6.21651 12.8645C5.83753 12.8437 5.46456 12.7291 5.13753 12.5336C4.42851 12.1095 3.99784 11.3666 3.98581 10.5465C3.97651 9.91106 4.21686 9.31168 4.66311 8.85859C5.11073 8.40414 5.70901 8.15395 6.34776 8.15395C6.41612 8.15395 6.48394 8.15695 6.55175 8.1627V6.84828C6.48175 6.84445 6.41147 6.84254 6.34147 6.84254Z" fill="#1A817D" stroke="#1A817D" stroke-width="0.6"/>
</g>
<defs>
<clipPath id="clip0_175_643">
<rect width="15" height="15" fill="white" transform="translate(0.5 0.5)"/>
</clipPath>
</defs>
</svg>
